<?xml version='1.0'?>
<!--
Bitly Generated QR Code
v5
37x37
-->
<svg width='720' height='720'
xmlns='http://www.w3.org/2000/svg'
xmlns:xlink='http://www.w3.org/1999/xlink'>
	<g id='background' style='fill:#ffffff' >
<rect x="0" y="0" width="720" height="720" />
</g>
<g id='pips' style='fill:#000000' >
<path d="M64,240L80,240L80,224L96,224L96,240L96,256L112,256L112,240L128,240L128,256L144,256L144,272L144,288L128,288L128,272L112,272L112,288L96,288L96,304L80,304L80,288L64,288L64,272L64,256L64,240M64,352L80,352L80,336L80,320L96,320L96,336L112,336L128,336L128,352L128,368L144,368L144,384L128,384L128,400L128,416L112,416L96,416L80,416L80,400L96,400L112,400L112,384L112,368L112,352L96,352L96,368L80,368L80,384L80,400L64,400L64,384L64,368L64,352M64,480L80,480L80,496L64,496L64,480M64,512L80,512L80,496L96,496L96,480L96,464L112,464L112,480L128,480L128,496L144,496L144,512L144,528L128,528L128,512L112,512L112,528L96,528L80,528L64,528L64,512M80,448L96,448L96,464L80,464L80,448M96,208L112,208L112,192L128,192L128,208L144,208L144,224L128,224L112,224L96,224L96,208M96,304L112,304L112,288L128,288L128,304L144,304L144,288L160,288L176,288L176,304L160,304L160,320L176,320L192,320L208,320L224,320L224,336L224,352L240,352L240,368L224,368L224,384L240,384L240,400L224,400L208,400L208,384L192,384L192,400L192,416L208,416L224,416L240,416L240,432L224,432L208,432L192,432L192,448L176,448L176,432L160,432L144,432L144,416L144,400L160,400L160,416L176,416L176,400L160,400L160,384L176,384L176,368L192,368L208,368L208,352L192,352L176,352L176,336L160,336L144,336L144,320L128,320L112,320L96,320L96,304M96,432L112,432L128,432L144,432L144,448L128,448L112,448L96,448L96,432M128,464L144,464L144,480L128,480L128,464M144,224L160,224L176,224L176,240L160,240L144,240L144,224M144,352L160,352L176,352L176,368L160,368L144,368L144,352M144,480L160,480L176,480L176,496L160,496L144,496L144,480M160,192L176,192L176,208L160,208L160,192M160,256L176,256L176,272L160,272L160,256M160,448L176,448L176,464L160,464L160,448M160,512L176,512L192,512L192,496L208,496L208,480L224,480L240,480L240,496L256,496L256,512L272,512L288,512L304,512L320,512L336,512L336,496L336,480L352,480L368,480L368,496L368,512L352,512L352,528L352,544L336,544L336,528L320,528L320,544L304,544L304,528L288,528L272,528L256,528L256,544L240,544L240,528L240,512L224,512L208,512L208,528L224,528L224,544L240,544L240,560L240,576L240,592L224,592L208,592L208,576L224,576L224,560L208,560L208,544L192,544L192,528L176,528L160,528L160,512M176,240L192,240L192,256L176,256L176,240M176,272L192,272L208,272L224,272L224,288L240,288L240,272L256,272L256,288L272,288L272,304L272,320L256,320L256,336L240,336L240,320L224,320L224,304L208,304L192,304L192,288L176,288L176,272M192,64L208,64L224,64L224,80L240,80L240,64L256,64L256,80L272,80L272,64L288,64L304,64L320,64L320,80L320,96L304,96L304,80L288,80L288,96L272,96L256,96L240,96L240,112L256,112L256,128L256,144L240,144L240,128L224,128L224,144L240,144L240,160L240,176L256,176L256,192L272,192L272,176L288,176L288,160L272,160L272,144L272,128L288,128L304,128L320,128L320,144L320,160L304,160L304,176L304,192L288,192L288,208L288,224L288,240L288,256L272,256L272,272L256,272L256,256L256,240L272,240L272,224L272,208L256,208L240,208L240,192L224,192L224,208L208,208L208,192L208,176L224,176L224,160L208,160L208,176L192,176L192,160L192,144L192,128L192,112L208,112L208,96L192,96L192,80L192,64M192,592L208,592L208,608L192,608L192,592M208,224L224,224L224,208L240,208L240,224L256,224L256,240L240,240L224,240L224,256L208,256L208,240L208,224M208,448L224,448L224,464L208,464L208,448M208,608L224,608L224,624L240,624L240,608L256,608L256,624L272,624L272,640L256,640L256,656L240,656L240,640L224,640L224,656L208,656L208,640L208,624L208,608M224,256L240,256L240,272L224,272L224,256M240,368L256,368L256,384L240,384L240,368M240,400L256,400L256,416L240,416L240,400M240,464L256,464L256,448L256,432L256,416L272,416L272,432L272,448L288,448L304,448L320,448L336,448L352,448L352,464L336,464L320,464L320,480L320,496L304,496L304,480L288,480L272,480L272,496L256,496L256,480L240,480L240,464M256,160L272,160L272,176L256,176L256,160M256,336L272,336L272,352L256,352L256,336M256,384L272,384L272,400L256,400L256,384M256,544L272,544L288,544L304,544L304,560L304,576L304,592L288,592L288,608L304,608L304,624L304,640L288,640L288,624L272,624L272,608L256,608L256,592L272,592L272,576L288,576L288,560L272,560L256,560L256,544M272,640L288,640L288,656L272,656L272,640M288,96L304,96L304,112L288,112L288,96M304,192L320,192L320,176L320,160L336,160L336,176L336,192L352,192L352,208L368,208L384,208L384,224L368,224L352,224L352,240L336,240L336,224L320,224L320,208L304,208L304,192M304,240L320,240L336,240L336,256L352,256L352,272L336,272L320,272L320,256L304,256L304,240M304,592L320,592L320,576L320,560L336,560L336,576L336,592L352,592L352,576L368,576L368,592L368,608L352,608L352,624L336,624L336,608L320,608L304,608L304,592M320,96L336,96L336,80L336,64L352,64L368,64L384,64L384,80L368,80L368,96L384,96L400,96L416,96L416,112L416,128L400,128L384,128L384,112L368,112L352,112L352,128L368,128L384,128L384,144L368,144L352,144L352,160L336,160L336,144L336,128L320,128L320,112L320,96M320,624L336,624L336,640L336,656L320,656L320,640L320,624M352,160L368,160L368,176L352,176L352,160M352,240L368,240L384,240L384,224L400,224L416,224L416,208L400,208L400,192L384,192L384,176L384,160L384,144L400,144L400,160L400,176L416,176L416,160L432,160L432,176L448,176L448,192L464,192L464,208L464,224L448,224L448,208L432,208L432,224L432,240L448,240L448,256L432,256L432,272L416,272L416,256L416,240L400,240L400,256L400,272L384,272L384,256L368,256L352,256L352,240M352,640L368,640L384,640L384,656L368,656L352,656L352,640M368,464L384,464L384,480L368,480L368,464M368,512L384,512L384,528L384,544L368,544L368,528L368,512M368,608L384,608L384,592L384,576L384,560L384,544L400,544L400,528L416,528L416,544L432,544L432,560L432,576L416,576L400,576L400,592L400,608L416,608L416,592L432,592L432,576L448,576L448,592L448,608L432,608L432,624L432,640L416,640L416,624L400,624L400,640L384,640L384,624L368,624L368,608M384,448L400,448L416,448L432,448L432,464L448,464L448,448L448,432L448,416L464,416L464,432L464,448L464,464L464,480L480,480L480,496L480,512L464,512L448,512L448,496L448,480L432,480L432,496L432,512L448,512L448,528L448,544L432,544L432,528L416,528L416,512L400,512L384,512L384,496L400,496L400,480L400,464L384,464L384,448M400,64L416,64L432,64L432,80L432,96L416,96L416,80L400,80L400,64M432,96L448,96L448,80L464,80L464,64L480,64L496,64L512,64L512,80L512,96L496,96L480,96L464,96L464,112L448,112L448,128L464,128L480,128L480,112L496,112L512,112L512,128L512,144L528,144L528,160L528,176L512,176L512,160L496,160L496,176L496,192L480,192L480,176L480,160L464,160L464,144L448,144L448,160L432,160L432,144L432,128L432,112L432,96M448,160L464,160L464,176L448,176L448,160M448,288L464,288L464,272L464,256L464,240L480,240L480,256L480,272L480,288L496,288L496,304L480,304L480,320L464,320L464,336L448,336L448,320L448,304L448,288M448,352L464,352L464,336L480,336L496,336L496,352L480,352L480,368L464,368L464,384L448,384L448,368L448,352M448,544L464,544L464,560L448,560L448,544M464,384L480,384L480,400L464,400L464,384M464,576L480,576L480,560L480,544L480,528L496,528L512,528L512,512L528,512L544,512L544,496L528,496L528,480L512,480L496,480L496,464L496,448L512,448L512,464L528,464L528,448L544,448L544,464L544,480L560,480L560,496L560,512L576,512L576,496L576,480L560,480L560,464L576,464L576,448L576,432L560,432L560,416L576,416L592,416L608,416L608,432L592,432L592,448L592,464L608,464L624,464L624,448L624,432L624,416L640,416L640,400L624,400L624,384L640,384L640,368L624,368L624,352L640,352L640,336L624,336L624,352L608,352L608,336L592,336L592,320L608,320L624,320L624,304L608,304L608,288L624,288L624,272L624,256L624,240L640,240L640,224L624,224L624,208L624,192L640,192L656,192L656,208L656,224L656,240L656,256L656,272L656,288L656,304L640,304L640,320L656,320L656,336L656,352L656,368L656,384L656,400L656,416L656,432L640,432L640,448L640,464L656,464L656,480L656,496L656,512L640,512L640,528L656,528L656,544L656,560L640,560L624,560L624,576L608,576L608,560L608,544L624,544L624,528L624,512L624,496L640,496L640,480L624,480L608,480L592,480L592,496L608,496L608,512L592,512L592,528L592,544L592,560L592,576L608,576L608,592L592,592L592,608L592,624L592,640L576,640L576,624L576,608L560,608L560,592L544,592L544,608L544,624L544,640L560,640L576,640L576,656L560,656L544,656L528,656L512,656L496,656L496,640L512,640L512,624L528,624L528,608L528,592L512,592L512,576L512,560L496,560L496,576L496,592L480,592L464,592L464,576M464,624L480,624L480,640L480,656L464,656L464,640L464,624M480,208L496,208L496,192L512,192L528,192L528,208L528,224L512,224L512,240L496,240L496,224L480,224L480,208M480,368L496,368L496,384L480,384L480,368M480,400L496,400L496,416L480,416L480,400M480,432L496,432L496,448L480,448L480,432M496,256L512,256L512,240L528,240L528,256L544,256L560,256L560,272L576,272L576,288L576,304L560,304L560,288L544,288L544,272L528,272L512,272L496,272L496,256M496,304L512,304L512,320L512,336L496,336L496,320L496,304M496,496L512,496L512,512L496,512L496,496M496,592L512,592L512,608L512,624L496,624L496,608L496,592M512,336L528,336L528,352L544,352L560,352L560,336L544,336L528,336L528,320L544,320L544,304L560,304L560,320L576,320L576,336L592,336L592,352L592,368L592,384L592,400L576,400L560,400L560,416L544,416L544,400L544,384L560,384L576,384L576,368L560,368L544,368L528,368L512,368L512,352L512,336M512,384L528,384L528,400L512,400L512,384M528,528L528,544L528,560L528,576L544,576L560,576L576,576L576,560L576,544L576,528L560,528L544,528L528,528M528,416L544,416L544,432L528,432L528,416M544,224L560,224L560,240L544,240L544,224M544,432L560,432L560,448L544,448L544,432M544,544L560,544L560,560L544,560L544,544M560,192L576,192L592,192L608,192L608,208L608,224L608,240L592,240L592,256L576,256L560,256L560,240L576,240L576,224L592,224L592,208L576,208L576,224L560,224L560,208L560,192M592,256L608,256L608,272L608,288L592,288L592,272L592,256M592,640L608,640L608,656L592,656L592,640M608,368L624,368L624,384L608,384L608,368M608,400L624,400L624,416L608,416L608,400M608,592L624,592L624,576L640,576L640,592L656,592L656,608L656,624L640,624L640,608L624,608L608,608L608,592M624,640L640,640L656,640L656,656L640,656L624,656L624,640Z" />
</g>
<g id='corners-outer-1' style='fill:#000000' >
<path d="M64,64L80,64L96,64L112,64L128,64L144,64L160,64L176,64L176,80L176,96L176,112L176,128L176,144L176,160L176,176L160,176L144,176L128,176L112,176L96,176L80,176L64,176L64,160L64,144L64,128L64,112L64,96L64,80L64,64M80,80L80,96L80,112L80,128L80,144L80,160L96,160L112,160L128,160L144,160L160,160L160,144L160,128L160,112L160,96L160,80L144,80L128,80L112,80L96,80L80,80Z" />
</g>
<g id='corners-outer-2' style='fill:#000000' >
<path d="M544,64L560,64L576,64L592,64L608,64L624,64L640,64L656,64L656,80L656,96L656,112L656,128L656,144L656,160L656,176L640,176L624,176L608,176L592,176L576,176L560,176L544,176L544,160L544,144L544,128L544,112L544,96L544,80L544,64M560,80L560,96L560,112L560,128L560,144L560,160L576,160L592,160L608,160L624,160L640,160L640,144L640,128L640,112L640,96L640,80L624,80L608,80L592,80L576,80L560,80Z" />
</g>
<g id='corners-outer-3' style='fill:#000000' >
<path d="M64,544L80,544L96,544L112,544L128,544L144,544L160,544L176,544L176,560L176,576L176,592L176,608L176,624L176,640L176,656L160,656L144,656L128,656L112,656L96,656L80,656L64,656L64,640L64,624L64,608L64,592L64,576L64,560L64,544M80,560L80,576L80,592L80,608L80,624L80,640L96,640L112,640L128,640L144,640L160,640L160,624L160,608L160,592L160,576L160,560L144,560L128,560L112,560L96,560L80,560Z" />
</g>
<g id='corners-inner-1' style='fill:#000000' >
<path d="M96,96L112,96L128,96L144,96L144,112L144,128L144,144L128,144L112,144L96,144L96,128L96,112L96,96Z" />
</g>
<g id='corners-inner-2' style='fill:#000000' >
<path d="M576,96L592,96L608,96L624,96L624,112L624,128L624,144L608,144L592,144L576,144L576,128L576,112L576,96Z" />
</g>
<g id='corners-inner-3' style='fill:#000000' >
<path d="M96,576L112,576L128,576L144,576L144,592L144,608L144,624L128,624L112,624L96,624L96,608L96,592L96,576Z" />
</g>
<g id='logo-svg' style='fill:#000000' >
<g transform='translate(280 280) scale(2.86 2.86)'>
<!-- Bitly Logo © Bitly Inc. -->
<path d="M9.31878 48.9865C3.10626 42.988 0 36.1445 0 28.4561C0 12.0273 12.7429 -6.10352e-05 27.9038 -6.10352e-05C43.222 -6.10352e-05 56 12.0273 56 28.4561C56 43.9845 42.2998 55.9999 30.3344 55.9999C25.3785 55.9999 21.7986 54.1257 19.9264 51.2073C19.2638 50.1744 18.6731 48.5091 18.5538 47.5C18.4743 46.8272 18.4743 44.5948 18.5538 40.803C18.5538 38.5939 18.5538 35.7708 18.5538 32.3338C18.6243 27.2183 19.1702 20.4505 17.1419 22.0106C16.5405 22.591 16.2984 23.1945 15.0104 23.2496C13.7215 23.1556 13.359 21.7746 13.572 21.0316C14.3367 18.365 16.5852 16.2288 20.1575 16.6144C23.7298 17 25.1038 19.3651 25.1982 22.558C25.1982 26.4187 25.1038 30.6312 25.1038 31.1207V31.5341C25.1214 31.9177 25.0658 32.228 25.5175 31.9709C25.9795 31.6568 26.378 31.3845 26.7129 31.1542C29.158 29.3012 35.1582 27.3465 39.8148 31.9709C41.5869 33.7308 43.7689 37.552 42.4984 43.4485C42.2943 44.0664 42.4578 44.1482 42.9889 43.6939C43.4275 43.2567 49.439 37.8413 49.439 27.5934C49.439 16.106 39.3669 6.51595 27.9038 6.51595C17.915 6.51595 6.4838 14.4679 6.4838 28.4561C6.4838 32.802 8.0413 38.1773 11.8543 42.3753C12.4772 43.0908 12.9493 43.5933 13.2706 43.8829C15.0104 45.3792 15.2394 47.2625 14.0834 48.631C12.5973 50.1303 11.0092 50.2488 9.31878 48.9865ZM30.4069 49.6219C35.5961 49.5381 36.433 44.1463 36.4609 41.1012C36.4609 36.6034 34.1732 35.011 30.7417 35.7094C27.9798 36.2682 25.1899 39.1456 24.8831 43.1406C24.8273 43.8111 24.7994 44.9006 24.8552 45.9342C24.9946 48.672 27.2823 49.6778 30.4069 49.6219Z" />
</g></g>
</svg>
